<svg width="16" height="16" viewBox="0 0 16 16" fill="none" xmlns="http://www.w3.org/2000/svg">
<rect width="16" height="16" fill="white"/>
<path fill-rule="evenodd" clip-rule="evenodd" d="M13 14V11H14V14H13Z" fill="#333333"/>
<path fill-rule="evenodd" clip-rule="evenodd" d="M9.92932 12.1961L9.50971 10.0981L10.4903 9.90195L10.9099 12L9.92932 12.1961ZM9.92932 12.1961C10.0228 12.6635 10.4332 13 10.9099 13H13V12L10.9099 12L9.92932 12.1961Z" fill="#333333"/>
<path fill-rule="evenodd" clip-rule="evenodd" d="M12.8932 9.7844L7.09763 11.3373L6.83881 10.3714L12.6344 8.81847L12.8932 9.7844Z" fill="#333333"/>
<path fill-rule="evenodd" clip-rule="evenodd" d="M2.20221 5.91974L3.88144 9.6109L2.90219 9.87329L1.22296 6.18213L2.20221 5.91974Z" fill="#333333"/>
<path fill-rule="evenodd" clip-rule="evenodd" d="M3.65776 5.52973L5.33699 9.22089L13.2121 7.11077L12.1768 3.24706L3.65776 5.52973ZM2.82882 4.71657L12.4009 2.15173C12.6677 2.08026 12.9418 2.23855 13.0133 2.50528L14.3074 7.33491C14.3789 7.60164 14.2206 7.87581 13.9538 7.94728L5.18668 10.2964C4.95059 10.3597 4.70336 10.243 4.60215 10.0205L2.50312 5.40658C2.37517 5.12534 2.53038 4.79653 2.82882 4.71657Z" fill="#333333"/>
</svg>
