<svg width="16" height="16" viewBox="0 0 16 16" fill="none" xmlns="http://www.w3.org/2000/svg">
<rect width="16" height="16" fill="white"/>
<path fill-rule="evenodd" clip-rule="evenodd" d="M2 8.28146V7.18008L8 9.94932L14 7.18008V8.28146L8 11.0507L2 8.28146ZM2 11.2815V10.1801L8 12.9493L14 10.1801V11.2815L8 14.0507L2 11.2815Z" fill="#333333"/>
<path fill-rule="evenodd" clip-rule="evenodd" d="M8 6.89863L3.8863 5L8 3.10137L12.1137 5L8 6.89863ZM8.20953 2.09671L13.5164 4.54602C13.9037 4.72477 13.9037 5.27523 13.5164 5.45398L8 8L2.48362 5.45398C2.09633 5.27523 2.09633 4.72477 2.48362 4.54602L8 2L8.20953 2.09671C8.20945 2.09667 8.20961 2.09674 8.20953 2.09671Z" fill="#333333"/>
</svg>
