<svg width="16" height="16" viewBox="0 0 16 16" fill="none" xmlns="http://www.w3.org/2000/svg">
<rect width="16" height="16" fill="white"/>
<path fill-rule="evenodd" clip-rule="evenodd" d="M11.8 7.5C11.8 9.87482 9.87482 11.8 7.5 11.8C5.12518 11.8 3.2 9.87482 3.2 7.5C3.2 5.12518 5.12518 3.2 7.5 3.2C9.87482 3.2 11.8 5.12518 11.8 7.5ZM11.0195 11.7266C10.0658 12.5217 8.83875 13 7.5 13C4.46243 13 2 10.5376 2 7.5C2 4.46243 4.46243 2 7.5 2C10.5376 2 13 4.46243 13 7.5C13 8.85267 12.5117 10.0913 11.7017 11.0492C11.7101 11.0393 11.7184 11.0294 11.7266 11.0195L13.3536 12.6464L12.6464 13.3536L11.0195 11.7266Z" fill="#333333"/>
</svg>
